<svg xmlns="http://www.w3.org/2000/svg"><symbol id="avatar-charlie-logos-palavra" viewBox="0 0 512 512">
<defs><linearGradient id="bg-charlie-logos-palavra" x2="1" y2="1"><stop stop-color="#091526"/><stop offset="1" stop-color="#18324b"/></linearGradient><linearGradient id="coat-charlie-logos-palavra" x2="1"><stop stop-color="#081827"/><stop offset=".5" stop-color="#142d49"/><stop offset="1" stop-color="#081827"/></linearGradient><radialGradient id="skin-charlie-logos-palavra"><stop stop-color="#f0b790"/><stop offset="1" stop-color="#d29a75"/></radialGradient></defs>
<rect width="512" height="512" rx="34" fill="url(#bg-charlie-logos-palavra)"/><circle cx="410" cy="88" r="112" fill="#d9a845" opacity=".09"/>
<path d="M62 512 Q78 390 166 358 L214 344 H298 L346 358 Q434 390 450 512Z" fill="url(#coat-charlie-logos-palavra)"/><path d="M169 360 L220 426 L256 383 L292 426 L343 360" fill="#d9a845" opacity=".22"/><path d="M173 360 L222 424 L256 388 L290 424 L339 360" fill="none" stroke="#d9a845" stroke-width="7"/>
<path d="M213 329 L213 373 Q256 400 299 373 L299 329Z" fill="#d29a75"/><ellipse cx="256" cy="228" rx="126" ry="145" fill="url(#skin-charlie-logos-palavra)"/><ellipse cx="130" cy="243" rx="19" ry="32" fill="#d29a75"/><ellipse cx="382" cy="243" rx="19" ry="32" fill="#d29a75"/>
<path d="M120 210 Q98 95 176 67 Q254 22 344 70 Q425 99 395 220 Q370 158 332 144 Q274 118 206 139 Q154 155 120 210Z" fill="#2b1a15"/><path d="M134 150 Q168 70 230 93 Q270 31 331 84 Q381 62 397 139 Q338 102 289 124 Q231 91 184 133Z" fill="#3b241c" opacity=".9"/><path d="M165 208 Q194 190 225 207M287 207 Q319 190 348 208" fill="none" stroke="#2b1a15" stroke-width="9" stroke-linecap="round"/><ellipse cx="196" cy="237" rx="10" ry="8" fill="#172536"/><ellipse cx="316" cy="237" rx="10" ry="8" fill="#172536"/>
<path d="M256 235 Q246 275 258 286 Q270 290 278 284" fill="none" stroke="#9b624b" stroke-width="5" stroke-linecap="round"/><path d="M211 312 Q256 338 301 312 Q279 349 256 349 Q232 349 211 312Z" fill="#9c5d59" opacity=".9"/>
<path d="M102 471 Q146 405 189 383M410 471 Q366 405 323 383" fill="none" stroke="#d9a845" stroke-width="6" opacity=".85"/>
</symbol>
<symbol id="avatar-charlie-logos-obra" viewBox="0 0 512 512">
<defs><linearGradient id="bg-charlie-logos-obra" x2="1" y2="1"><stop stop-color="#0a1a28"/><stop offset="1" stop-color="#253e53"/></linearGradient><linearGradient id="coat-charlie-logos-obra" x2="1"><stop stop-color="#0c1b27"/><stop offset=".5" stop-color="#1b2938"/><stop offset="1" stop-color="#0c1b27"/></linearGradient><radialGradient id="skin-charlie-logos-obra"><stop stop-color="#f0b790"/><stop offset="1" stop-color="#d29a75"/></radialGradient></defs>
<rect width="512" height="512" rx="34" fill="url(#bg-charlie-logos-obra)"/><circle cx="410" cy="88" r="112" fill="#44b8d5" opacity=".09"/>
<path d="M62 512 Q78 390 166 358 L214 344 H298 L346 358 Q434 390 450 512Z" fill="url(#coat-charlie-logos-obra)"/><path d="M169 360 L220 426 L256 383 L292 426 L343 360" fill="#44b8d5" opacity=".22"/><path d="M173 360 L222 424 L256 388 L290 424 L339 360" fill="none" stroke="#d9a845" stroke-width="7"/>
<path d="M213 329 L213 373 Q256 400 299 373 L299 329Z" fill="#d29a75"/><ellipse cx="256" cy="228" rx="126" ry="145" fill="url(#skin-charlie-logos-obra)"/><ellipse cx="130" cy="243" rx="19" ry="32" fill="#d29a75"/><ellipse cx="382" cy="243" rx="19" ry="32" fill="#d29a75"/>
<path d="M120 210 Q98 95 176 67 Q254 22 344 70 Q425 99 395 220 Q370 158 332 144 Q274 118 206 139 Q154 155 120 210Z" fill="#2b1a15"/><path d="M134 150 Q168 70 230 93 Q270 31 331 84 Q381 62 397 139 Q338 102 289 124 Q231 91 184 133Z" fill="#3b241c" opacity=".9"/><path d="M165 208 Q194 190 225 207M287 207 Q319 190 348 208" fill="none" stroke="#2b1a15" stroke-width="9" stroke-linecap="round"/><ellipse cx="196" cy="237" rx="10" ry="8" fill="#172536"/><ellipse cx="316" cy="237" rx="10" ry="8" fill="#172536"/>
<path d="M256 235 Q246 275 258 286 Q270 290 278 284" fill="none" stroke="#9b624b" stroke-width="5" stroke-linecap="round"/><path d="M211 312 Q256 338 301 312 Q279 349 256 349 Q232 349 211 312Z" fill="#9c5d59" opacity=".9"/>
<path d="M102 471 Q146 405 189 383M410 471 Q366 405 323 383" fill="none" stroke="#d9a845" stroke-width="6" opacity=".85"/>
</symbol>
<symbol id="avatar-gemini-alfa" viewBox="0 0 512 512">
<defs><linearGradient id="bg-gemini-alfa" x2="1" y2="1"><stop stop-color="#09182a"/><stop offset="1" stop-color="#1d3854"/></linearGradient><linearGradient id="coat-gemini-alfa" x2="1"><stop stop-color="#071a2b"/><stop offset=".5" stop-color="#18304a"/><stop offset="1" stop-color="#071a2b"/></linearGradient><radialGradient id="skin-gemini-alfa"><stop stop-color="#efb08d"/><stop offset="1" stop-color="#c98f6f"/></radialGradient></defs>
<rect width="512" height="512" rx="34" fill="url(#bg-gemini-alfa)"/><circle cx="410" cy="88" r="112" fill="#4bbdd8" opacity=".09"/>
<path d="M62 512 Q78 390 166 358 L214 344 H298 L346 358 Q434 390 450 512Z" fill="url(#coat-gemini-alfa)"/><path d="M169 360 L220 426 L256 383 L292 426 L343 360" fill="#4bbdd8" opacity=".22"/><path d="M173 360 L222 424 L256 388 L290 424 L339 360" fill="none" stroke="#d9a845" stroke-width="7"/>
<path d="M213 329 L213 373 Q256 400 299 373 L299 329Z" fill="#c98f6f"/><ellipse cx="256" cy="228" rx="126" ry="145" fill="url(#skin-gemini-alfa)"/><ellipse cx="130" cy="243" rx="19" ry="32" fill="#c98f6f"/><ellipse cx="382" cy="243" rx="19" ry="32" fill="#c98f6f"/>
<path d="M120 210 Q98 95 176 67 Q254 22 344 70 Q425 99 395 220 Q370 158 332 144 Q274 118 206 139 Q154 155 120 210Z" fill="#1e1615"/><path d="M134 150 Q168 70 230 93 Q270 31 331 84 Q381 62 397 139 Q338 102 289 124 Q231 91 184 133Z" fill="#30211e" opacity=".9"/><path d="M165 208 Q194 190 225 207M287 207 Q319 190 348 208" fill="none" stroke="#1e1615" stroke-width="9" stroke-linecap="round"/><ellipse cx="196" cy="237" rx="10" ry="8" fill="#172536"/><ellipse cx="316" cy="237" rx="10" ry="8" fill="#172536"/>
<path d="M256 235 Q246 275 258 286 Q270 290 278 284" fill="none" stroke="#9b624b" stroke-width="5" stroke-linecap="round"/><path d="M211 312 Q256 338 301 312 Q279 349 256 349 Q232 349 211 312Z" fill="#9c5d59" opacity=".9"/>
<g fill="none" stroke="#1d2630" stroke-width="7"><rect x="154" y="214" width="76" height="52" rx="18"/><rect x="282" y="214" width="76" height="52" rx="18"/><path d="M230 235 Q256 222 282 235"/></g><path d="M102 471 Q146 405 189 383M410 471 Q366 405 323 383" fill="none" stroke="#d9a845" stroke-width="6" opacity=".85"/>
</symbol>
<symbol id="avatar-gemini-beta" viewBox="0 0 512 512">
<defs><linearGradient id="bg-gemini-beta" x2="1" y2="1"><stop stop-color="#0b1a2b"/><stop offset="1" stop-color="#263b50"/></linearGradient><linearGradient id="coat-gemini-beta" x2="1"><stop stop-color="#101d2d"/><stop offset=".5" stop-color="#26394c"/><stop offset="1" stop-color="#101d2d"/></linearGradient><radialGradient id="skin-gemini-beta"><stop stop-color="#e7a887"/><stop offset="1" stop-color="#bd7f63"/></radialGradient></defs>
<rect width="512" height="512" rx="34" fill="url(#bg-gemini-beta)"/><circle cx="410" cy="88" r="112" fill="#55c4c7" opacity=".09"/>
<path d="M62 512 Q78 390 166 358 L214 344 H298 L346 358 Q434 390 450 512Z" fill="url(#coat-gemini-beta)"/><path d="M169 360 L220 426 L256 383 L292 426 L343 360" fill="#55c4c7" opacity=".22"/><path d="M173 360 L222 424 L256 388 L290 424 L339 360" fill="none" stroke="#d9a845" stroke-width="7"/>
<path d="M213 329 L213 373 Q256 400 299 373 L299 329Z" fill="#bd7f63"/><ellipse cx="256" cy="228" rx="126" ry="145" fill="url(#skin-gemini-beta)"/><ellipse cx="130" cy="243" rx="19" ry="32" fill="#bd7f63"/><ellipse cx="382" cy="243" rx="19" ry="32" fill="#bd7f63"/>
<path d="M121 183 Q103 78 191 55 Q283 22 359 74 Q409 109 392 209 L374 355 Q343 325 333 226 Q292 160 190 171 Q156 183 145 232 L130 354 Q101 287 121 183Z" fill="#3b241f"/><path d="M165 208 Q194 190 225 207M287 207 Q319 190 348 208" fill="none" stroke="#3b241f" stroke-width="9" stroke-linecap="round"/><ellipse cx="196" cy="237" rx="10" ry="8" fill="#172536"/><ellipse cx="316" cy="237" rx="10" ry="8" fill="#172536"/>
<path d="M256 235 Q246 275 258 286 Q270 290 278 284" fill="none" stroke="#9b624b" stroke-width="5" stroke-linecap="round"/><path d="M211 312 Q256 338 301 312 Q279 349 256 349 Q232 349 211 312Z" fill="#9c5d59" opacity=".9"/>
<path d="M102 471 Q146 405 189 383M410 471 Q366 405 323 383" fill="none" stroke="#d9a845" stroke-width="6" opacity=".85"/>
</symbol>
<symbol id="avatar-gemini-celeste" viewBox="0 0 512 512">
<defs><linearGradient id="bg-gemini-celeste" x2="1" y2="1"><stop stop-color="#071528"/><stop offset="1" stop-color="#173f69"/></linearGradient><linearGradient id="coat-gemini-celeste" x2="1"><stop stop-color="#081a2e"/><stop offset=".5" stop-color="#0f3154"/><stop offset="1" stop-color="#081a2e"/></linearGradient><radialGradient id="skin-gemini-celeste"><stop stop-color="#9c6249"/><stop offset="1" stop-color="#6e402f"/></radialGradient></defs>
<rect width="512" height="512" rx="34" fill="url(#bg-gemini-celeste)"/><circle cx="410" cy="88" r="112" fill="#3d9fe0" opacity=".09"/>
<path d="M62 512 Q78 390 166 358 L214 344 H298 L346 358 Q434 390 450 512Z" fill="url(#coat-gemini-celeste)"/><path d="M169 360 L220 426 L256 383 L292 426 L343 360" fill="#3d9fe0" opacity=".22"/><path d="M173 360 L222 424 L256 388 L290 424 L339 360" fill="none" stroke="#e6b84e" stroke-width="7"/>
<path d="M213 329 L213 373 Q256 400 299 373 L299 329Z" fill="#6e402f"/><ellipse cx="256" cy="228" rx="126" ry="145" fill="url(#skin-gemini-celeste)"/><ellipse cx="130" cy="243" rx="19" ry="32" fill="#6e402f"/><ellipse cx="382" cy="243" rx="19" ry="32" fill="#6e402f"/>
<g fill="#171313"><circle cx="139" cy="139" r="58"/><circle cx="185" cy="99" r="52"/><circle cx="241" cy="83" r="50"/><circle cx="299" cy="91" r="50"/><circle cx="352" cy="118" r="55"/><circle cx="382" cy="169" r="48"/><circle cx="128" cy="190" r="48"/><circle cx="373" cy="212" r="44"/><circle cx="148" cy="234" r="42"/></g><path d="M165 208 Q194 190 225 207M287 207 Q319 190 348 208" fill="none" stroke="#171313" stroke-width="9" stroke-linecap="round"/><ellipse cx="196" cy="237" rx="10" ry="8" fill="#172536"/><ellipse cx="316" cy="237" rx="10" ry="8" fill="#172536"/>
<path d="M256 235 Q246 275 258 286 Q270 290 278 284" fill="none" stroke="#9b624b" stroke-width="5" stroke-linecap="round"/><path d="M211 312 Q256 338 301 312 Q279 349 256 349 Q232 349 211 312Z" fill="#9c5d59" opacity=".9"/>
<path d="M102 471 Q146 405 189 383M410 471 Q366 405 323 383" fill="none" stroke="#e6b84e" stroke-width="6" opacity=".85"/>
</symbol>
<symbol id="avatar-charlie-veloce" viewBox="0 0 512 512">
<defs><linearGradient id="bg-charlie-veloce" x2="1" y2="1"><stop stop-color="#0b1624"/><stop offset="1" stop-color="#27374b"/></linearGradient><linearGradient id="coat-charlie-veloce" x2="1"><stop stop-color="#111b28"/><stop offset=".5" stop-color="#242f3b"/><stop offset="1" stop-color="#111b28"/></linearGradient><radialGradient id="skin-charlie-veloce"><stop stop-color="#df9f7e"/><stop offset="1" stop-color="#b77b5f"/></radialGradient></defs>
<rect width="512" height="512" rx="34" fill="url(#bg-charlie-veloce)"/><circle cx="410" cy="88" r="112" fill="#d39b37" opacity=".09"/>
<path d="M62 512 Q78 390 166 358 L214 344 H298 L346 358 Q434 390 450 512Z" fill="url(#coat-charlie-veloce)"/><path d="M169 360 L220 426 L256 383 L292 426 L343 360" fill="#d39b37" opacity=".22"/><path d="M173 360 L222 424 L256 388 L290 424 L339 360" fill="none" stroke="#e2b34f" stroke-width="7"/>
<path d="M213 329 L213 373 Q256 400 299 373 L299 329Z" fill="#b77b5f"/><ellipse cx="256" cy="228" rx="126" ry="145" fill="url(#skin-charlie-veloce)"/><ellipse cx="130" cy="243" rx="19" ry="32" fill="#b77b5f"/><ellipse cx="382" cy="243" rx="19" ry="32" fill="#b77b5f"/>
<path d="M128 202 Q109 95 190 66 Q270 38 347 73 Q404 101 392 188 Q353 143 314 135 Q236 117 169 146 Q145 159 128 202Z" fill="#14161a"/><path d="M165 208 Q194 190 225 207M287 207 Q319 190 348 208" fill="none" stroke="#14161a" stroke-width="9" stroke-linecap="round"/><ellipse cx="196" cy="237" rx="10" ry="8" fill="#172536"/><ellipse cx="316" cy="237" rx="10" ry="8" fill="#172536"/>
<path d="M256 235 Q246 275 258 286 Q270 290 278 284" fill="none" stroke="#9b624b" stroke-width="5" stroke-linecap="round"/><path d="M211 312 Q256 338 301 312 Q279 349 256 349 Q232 349 211 312Z" fill="#9c5d59" opacity=".9"/>
<path d="M178 304 Q203 356 256 369 Q309 356 334 304 Q316 390 256 404 Q196 389 178 304Z" fill="#14161a" opacity=".82"/><path d="M102 471 Q146 405 189 383M410 471 Q366 405 323 383" fill="none" stroke="#e2b34f" stroke-width="6" opacity=".85"/>
</symbol>
<symbol id="avatar-osso-duro-alfa" viewBox="0 0 512 512">
<defs><linearGradient id="bg-osso-duro-alfa" x2="1" y2="1"><stop stop-color="#101823"/><stop offset="1" stop-color="#3a2d25"/></linearGradient><linearGradient id="coat-osso-duro-alfa" x2="1"><stop stop-color="#111820"/><stop offset=".5" stop-color="#342f2d"/><stop offset="1" stop-color="#111820"/></linearGradient><radialGradient id="skin-osso-duro-alfa"><stop stop-color="#d8a18a"/><stop offset="1" stop-color="#b78368"/></radialGradient></defs>
<rect width="512" height="512" rx="34" fill="url(#bg-osso-duro-alfa)"/><circle cx="410" cy="88" r="112" fill="#b98748" opacity=".09"/>
<path d="M62 512 Q78 390 166 358 L214 344 H298 L346 358 Q434 390 450 512Z" fill="url(#coat-osso-duro-alfa)"/><path d="M169 360 L220 426 L256 383 L292 426 L343 360" fill="#b98748" opacity=".22"/><path d="M173 360 L222 424 L256 388 L290 424 L339 360" fill="none" stroke="#e1b95e" stroke-width="7"/>
<path d="M213 329 L213 373 Q256 400 299 373 L299 329Z" fill="#b78368"/><ellipse cx="256" cy="228" rx="126" ry="145" fill="url(#skin-osso-duro-alfa)"/><ellipse cx="130" cy="243" rx="19" ry="32" fill="#b78368"/><ellipse cx="382" cy="243" rx="19" ry="32" fill="#b78368"/>
<path d="M120 202 Q104 88 197 57 Q292 27 363 88 Q404 123 386 214 Q348 157 302 143 Q222 120 165 158 Q141 174 120 202Z" fill="#5b514c"/><path d="M143 112 Q203 38 264 82 Q324 41 376 112 Q301 82 253 117 Q197 83 143 112Z" fill="#8c7f78" opacity=".72"/><path d="M165 208 Q194 190 225 207M287 207 Q319 190 348 208" fill="none" stroke="#5b514c" stroke-width="9" stroke-linecap="round"/><ellipse cx="196" cy="237" rx="10" ry="8" fill="#172536"/><ellipse cx="316" cy="237" rx="10" ry="8" fill="#172536"/>
<path d="M256 235 Q246 275 258 286 Q270 290 278 284" fill="none" stroke="#9b624b" stroke-width="5" stroke-linecap="round"/><path d="M211 312 Q256 338 301 312 Q279 349 256 349 Q232 349 211 312Z" fill="#9c5d59" opacity=".9"/>
<path d="M178 304 Q203 356 256 369 Q309 356 334 304 Q316 390 256 404 Q196 389 178 304Z" fill="#5b514c" opacity=".82"/><path d="M102 471 Q146 405 189 383M410 471 Q366 405 323 383" fill="none" stroke="#e1b95e" stroke-width="6" opacity=".85"/>
</symbol>
<symbol id="avatar-osso-duro-unicornio" viewBox="0 0 512 512">
<defs><linearGradient id="bg-osso-duro-unicornio" x2="1" y2="1"><stop stop-color="#0a1421"/><stop offset="1" stop-color="#26354a"/></linearGradient><linearGradient id="coat-osso-duro-unicornio" x2="1"><stop stop-color="#0e1827"/><stop offset=".5" stop-color="#263244"/><stop offset="1" stop-color="#0e1827"/></linearGradient><radialGradient id="skin-osso-duro-unicornio"><stop stop-color="#e1ad89"/><stop offset="1" stop-color="#c89472"/></radialGradient></defs>
<rect width="512" height="512" rx="34" fill="url(#bg-osso-duro-unicornio)"/><circle cx="410" cy="88" r="112" fill="#7c8ed8" opacity=".09"/>
<path d="M62 512 Q78 390 166 358 L214 344 H298 L346 358 Q434 390 450 512Z" fill="url(#coat-osso-duro-unicornio)"/><path d="M169 360 L220 426 L256 383 L292 426 L343 360" fill="#7c8ed8" opacity=".22"/><path d="M173 360 L222 424 L256 388 L290 424 L339 360" fill="none" stroke="#d9a845" stroke-width="7"/>
<path d="M213 329 L213 373 Q256 400 299 373 L299 329Z" fill="#c89472"/><ellipse cx="256" cy="228" rx="126" ry="145" fill="url(#skin-osso-duro-unicornio)"/><ellipse cx="130" cy="243" rx="19" ry="32" fill="#c89472"/><ellipse cx="382" cy="243" rx="19" ry="32" fill="#c89472"/>
<path d="M121 183 Q103 78 191 55 Q283 22 359 74 Q409 109 392 209 L374 355 Q343 325 333 226 Q292 160 190 171 Q156 183 145 232 L130 354 Q101 287 121 183Z" fill="#11151b"/><path d="M165 208 Q194 190 225 207M287 207 Q319 190 348 208" fill="none" stroke="#11151b" stroke-width="9" stroke-linecap="round"/><path d="M170 234 Q194 221 221 234M291 234 Q318 221 342 234" fill="none" stroke="#1b2330" stroke-width="8" stroke-linecap="round"/>
<path d="M256 235 Q246 275 258 286 Q270 290 278 284" fill="none" stroke="#9b624b" stroke-width="5" stroke-linecap="round"/><path d="M211 312 Q256 338 301 312 Q279 349 256 349 Q232 349 211 312Z" fill="#9c5d59" opacity=".9"/>
<path d="M102 471 Q146 405 189 383M410 471 Q366 405 323 383" fill="none" stroke="#d9a845" stroke-width="6" opacity=".85"/>
</symbol>
<symbol id="avatar-charlie-bastion" viewBox="0 0 512 512">
<defs><linearGradient id="bg-charlie-bastion" x2="1" y2="1"><stop stop-color="#091521"/><stop offset="1" stop-color="#21323f"/></linearGradient><linearGradient id="coat-charlie-bastion" x2="1"><stop stop-color="#0b1721"/><stop offset=".5" stop-color="#1d2b35"/><stop offset="1" stop-color="#0b1721"/></linearGradient><radialGradient id="skin-charlie-bastion"><stop stop-color="#8b5945"/><stop offset="1" stop-color="#5a3428"/></radialGradient></defs>
<rect width="512" height="512" rx="34" fill="url(#bg-charlie-bastion)"/><circle cx="410" cy="88" r="112" fill="#d39a33" opacity=".09"/>
<path d="M62 512 Q78 390 166 358 L214 344 H298 L346 358 Q434 390 450 512Z" fill="url(#coat-charlie-bastion)"/><path d="M169 360 L220 426 L256 383 L292 426 L343 360" fill="#d39a33" opacity=".22"/><path d="M173 360 L222 424 L256 388 L290 424 L339 360" fill="none" stroke="#d9a845" stroke-width="7"/>
<path d="M213 329 L213 373 Q256 400 299 373 L299 329Z" fill="#5a3428"/><ellipse cx="256" cy="228" rx="126" ry="145" fill="url(#skin-charlie-bastion)"/><ellipse cx="130" cy="243" rx="19" ry="32" fill="#5a3428"/><ellipse cx="382" cy="243" rx="19" ry="32" fill="#5a3428"/>
<path d="M128 202 Q109 95 190 66 Q270 38 347 73 Q404 101 392 188 Q353 143 314 135 Q236 117 169 146 Q145 159 128 202Z" fill="#161616"/><path d="M165 208 Q194 190 225 207M287 207 Q319 190 348 208" fill="none" stroke="#161616" stroke-width="9" stroke-linecap="round"/><ellipse cx="196" cy="237" rx="10" ry="8" fill="#172536"/><ellipse cx="316" cy="237" rx="10" ry="8" fill="#172536"/>
<path d="M256 235 Q246 275 258 286 Q270 290 278 284" fill="none" stroke="#9b624b" stroke-width="5" stroke-linecap="round"/><path d="M211 312 Q256 338 301 312 Q279 349 256 349 Q232 349 211 312Z" fill="#9c5d59" opacity=".9"/>
<path d="M178 304 Q203 356 256 369 Q309 356 334 304 Q316 390 256 404 Q196 389 178 304Z" fill="#161616" opacity=".82"/><path d="M102 471 Q146 405 189 383M410 471 Q366 405 323 383" fill="none" stroke="#d9a845" stroke-width="6" opacity=".85"/>
</symbol>
<symbol id="avatar-charlie-arian" viewBox="0 0 512 512">
<defs><linearGradient id="bg-charlie-arian" x2="1" y2="1"><stop stop-color="#0d1524"/><stop offset="1" stop-color="#3c2834"/></linearGradient><linearGradient id="coat-charlie-arian" x2="1"><stop stop-color="#121827"/><stop offset=".5" stop-color="#342435"/><stop offset="1" stop-color="#121827"/></linearGradient><radialGradient id="skin-charlie-arian"><stop stop-color="#f0af90"/><stop offset="1" stop-color="#d18c70"/></radialGradient></defs>
<rect width="512" height="512" rx="34" fill="url(#bg-charlie-arian)"/><circle cx="410" cy="88" r="112" fill="#c95c4a" opacity=".09"/>
<path d="M62 512 Q78 390 166 358 L214 344 H298 L346 358 Q434 390 450 512Z" fill="url(#coat-charlie-arian)"/><path d="M169 360 L220 426 L256 383 L292 426 L343 360" fill="#c95c4a" opacity=".22"/><path d="M173 360 L222 424 L256 388 L290 424 L339 360" fill="none" stroke="#d9a845" stroke-width="7"/>
<path d="M213 329 L213 373 Q256 400 299 373 L299 329Z" fill="#d18c70"/><ellipse cx="256" cy="228" rx="126" ry="145" fill="url(#skin-charlie-arian)"/><ellipse cx="130" cy="243" rx="19" ry="32" fill="#d18c70"/><ellipse cx="382" cy="243" rx="19" ry="32" fill="#d18c70"/>
<path d="M121 183 Q103 78 191 55 Q283 22 359 74 Q409 109 392 209 L374 355 Q343 325 333 226 Q292 160 190 171 Q156 183 145 232 L130 354 Q101 287 121 183Z" fill="#722d1f"/><path d="M165 208 Q194 190 225 207M287 207 Q319 190 348 208" fill="none" stroke="#722d1f" stroke-width="9" stroke-linecap="round"/><ellipse cx="196" cy="237" rx="10" ry="8" fill="#172536"/><ellipse cx="316" cy="237" rx="10" ry="8" fill="#172536"/>
<path d="M256 235 Q246 275 258 286 Q270 290 278 284" fill="none" stroke="#9b624b" stroke-width="5" stroke-linecap="round"/><path d="M211 312 Q256 338 301 312 Q279 349 256 349 Q232 349 211 312Z" fill="#9c5d59" opacity=".9"/>
<path d="M102 471 Q146 405 189 383M410 471 Q366 405 323 383" fill="none" stroke="#d9a845" stroke-width="6" opacity=".85"/>
</symbol>
<symbol id="avatar-perplexity-crivo" viewBox="0 0 512 512">
<defs><linearGradient id="bg-perplexity-crivo" x2="1" y2="1"><stop stop-color="#0c1824"/><stop offset="1" stop-color="#304457"/></linearGradient><linearGradient id="coat-perplexity-crivo" x2="1"><stop stop-color="#111d29"/><stop offset=".5" stop-color="#263746"/><stop offset="1" stop-color="#111d29"/></linearGradient><radialGradient id="skin-perplexity-crivo"><stop stop-color="#edbaa1"/><stop offset="1" stop-color="#c99b82"/></radialGradient></defs>
<rect width="512" height="512" rx="34" fill="url(#bg-perplexity-crivo)"/><circle cx="410" cy="88" r="112" fill="#8aa6bf" opacity=".09"/>
<path d="M62 512 Q78 390 166 358 L214 344 H298 L346 358 Q434 390 450 512Z" fill="url(#coat-perplexity-crivo)"/><path d="M169 360 L220 426 L256 383 L292 426 L343 360" fill="#8aa6bf" opacity=".22"/><path d="M173 360 L222 424 L256 388 L290 424 L339 360" fill="none" stroke="#d9a845" stroke-width="7"/>
<path d="M213 329 L213 373 Q256 400 299 373 L299 329Z" fill="#c99b82"/><ellipse cx="256" cy="228" rx="126" ry="145" fill="url(#skin-perplexity-crivo)"/><ellipse cx="130" cy="243" rx="19" ry="32" fill="#c99b82"/><ellipse cx="382" cy="243" rx="19" ry="32" fill="#c99b82"/>
<path d="M120 202 Q104 88 197 57 Q292 27 363 88 Q404 123 386 214 Q348 157 302 143 Q222 120 165 158 Q141 174 120 202Z" fill="#d7d7d7"/><path d="M143 112 Q203 38 264 82 Q324 41 376 112 Q301 82 253 117 Q197 83 143 112Z" fill="#f1f1f1" opacity=".72"/><path d="M165 208 Q194 190 225 207M287 207 Q319 190 348 208" fill="none" stroke="#d7d7d7" stroke-width="9" stroke-linecap="round"/><ellipse cx="196" cy="237" rx="10" ry="8" fill="#172536"/><ellipse cx="316" cy="237" rx="10" ry="8" fill="#172536"/>
<path d="M256 235 Q246 275 258 286 Q270 290 278 284" fill="none" stroke="#9b624b" stroke-width="5" stroke-linecap="round"/><path d="M211 312 Q256 338 301 312 Q279 349 256 349 Q232 349 211 312Z" fill="#9c5d59" opacity=".9"/>
<path d="M102 471 Q146 405 189 383M410 471 Q366 405 323 383" fill="none" stroke="#d9a845" stroke-width="6" opacity=".85"/>
</symbol>
<symbol id="avatar-deepseek-prisma" viewBox="0 0 512 512">
<defs><linearGradient id="bg-deepseek-prisma" x2="1" y2="1"><stop stop-color="#0b1724"/><stop offset="1" stop-color="#263c51"/></linearGradient><linearGradient id="coat-deepseek-prisma" x2="1"><stop stop-color="#0e1a28"/><stop offset=".5" stop-color="#20364a"/><stop offset="1" stop-color="#0e1a28"/></linearGradient><radialGradient id="skin-deepseek-prisma"><stop stop-color="#e4ad90"/><stop offset="1" stop-color="#c28f73"/></radialGradient></defs>
<rect width="512" height="512" rx="34" fill="url(#bg-deepseek-prisma)"/><circle cx="410" cy="88" r="112" fill="#66a8d4" opacity=".09"/>
<path d="M62 512 Q78 390 166 358 L214 344 H298 L346 358 Q434 390 450 512Z" fill="url(#coat-deepseek-prisma)"/><path d="M169 360 L220 426 L256 383 L292 426 L343 360" fill="#66a8d4" opacity=".22"/><path d="M173 360 L222 424 L256 388 L290 424 L339 360" fill="none" stroke="#d9a845" stroke-width="7"/>
<path d="M213 329 L213 373 Q256 400 299 373 L299 329Z" fill="#c28f73"/><ellipse cx="256" cy="228" rx="126" ry="145" fill="url(#skin-deepseek-prisma)"/><ellipse cx="130" cy="243" rx="19" ry="32" fill="#c28f73"/><ellipse cx="382" cy="243" rx="19" ry="32" fill="#c28f73"/>
<path d="M120 210 Q98 95 176 67 Q254 22 344 70 Q425 99 395 220 Q370 158 332 144 Q274 118 206 139 Q154 155 120 210Z" fill="#15171c"/><path d="M134 150 Q168 70 230 93 Q270 31 331 84 Q381 62 397 139 Q338 102 289 124 Q231 91 184 133Z" fill="#25282f" opacity=".9"/><path d="M165 208 Q194 190 225 207M287 207 Q319 190 348 208" fill="none" stroke="#15171c" stroke-width="9" stroke-linecap="round"/><path d="M170 234 Q194 221 221 234M291 234 Q318 221 342 234" fill="none" stroke="#1b2330" stroke-width="8" stroke-linecap="round"/>
<path d="M256 235 Q246 275 258 286 Q270 290 278 284" fill="none" stroke="#9b624b" stroke-width="5" stroke-linecap="round"/><path d="M211 312 Q256 338 301 312 Q279 349 256 349 Q232 349 211 312Z" fill="#9c5d59" opacity=".9"/>
<g fill="none" stroke="#1d2630" stroke-width="7"><rect x="154" y="214" width="76" height="52" rx="18"/><rect x="282" y="214" width="76" height="52" rx="18"/><path d="M230 235 Q256 222 282 235"/></g><path d="M102 471 Q146 405 189 383M410 471 Q366 405 323 383" fill="none" stroke="#d9a845" stroke-width="6" opacity=".85"/>
</symbol>
<symbol id="avatar-charlie-fox-filho" viewBox="0 0 512 512">
<defs><linearGradient id="bg-charlie-fox-filho" x2="1" y2="1"><stop stop-color="#0d1824"/><stop offset="1" stop-color="#33485a"/></linearGradient><linearGradient id="coat-charlie-fox-filho" x2="1"><stop stop-color="#111c29"/><stop offset=".5" stop-color="#293b4d"/><stop offset="1" stop-color="#111c29"/></linearGradient><radialGradient id="skin-charlie-fox-filho"><stop stop-color="#efb691"/><stop offset="1" stop-color="#d19a78"/></radialGradient></defs>
<rect width="512" height="512" rx="34" fill="url(#bg-charlie-fox-filho)"/><circle cx="410" cy="88" r="112" fill="#d9a845" opacity=".09"/>
<path d="M62 512 Q78 390 166 358 L214 344 H298 L346 358 Q434 390 450 512Z" fill="url(#coat-charlie-fox-filho)"/><path d="M169 360 L220 426 L256 383 L292 426 L343 360" fill="#d9a845" opacity=".22"/><path d="M173 360 L222 424 L256 388 L290 424 L339 360" fill="none" stroke="#e4bd63" stroke-width="7"/>
<path d="M213 329 L213 373 Q256 400 299 373 L299 329Z" fill="#d19a78"/><ellipse cx="256" cy="228" rx="126" ry="145" fill="url(#skin-charlie-fox-filho)"/><ellipse cx="130" cy="243" rx="19" ry="32" fill="#d19a78"/><ellipse cx="382" cy="243" rx="19" ry="32" fill="#d19a78"/>
<path d="M120 210 Q98 95 176 67 Q254 22 344 70 Q425 99 395 220 Q370 158 332 144 Q274 118 206 139 Q154 155 120 210Z" fill="#4e3328"/><path d="M134 150 Q168 70 230 93 Q270 31 331 84 Q381 62 397 139 Q338 102 289 124 Q231 91 184 133Z" fill="#6a4334" opacity=".9"/><path d="M165 208 Q194 190 225 207M287 207 Q319 190 348 208" fill="none" stroke="#4e3328" stroke-width="9" stroke-linecap="round"/><ellipse cx="196" cy="237" rx="10" ry="8" fill="#172536"/><ellipse cx="316" cy="237" rx="10" ry="8" fill="#172536"/>
<path d="M256 235 Q246 275 258 286 Q270 290 278 284" fill="none" stroke="#9b624b" stroke-width="5" stroke-linecap="round"/><path d="M211 312 Q256 338 301 312 Q279 349 256 349 Q232 349 211 312Z" fill="#9c5d59" opacity=".9"/>
<path d="M102 471 Q146 405 189 383M410 471 Q366 405 323 383" fill="none" stroke="#e4bd63" stroke-width="6" opacity=".85"/>
</symbol>
<symbol id="avatar-charlie-guilda" viewBox="0 0 512 512">
<defs><linearGradient id="bg-charlie-guilda" x2="1" y2="1"><stop stop-color="#091725"/><stop offset="1" stop-color="#304156"/></linearGradient><linearGradient id="coat-charlie-guilda" x2="1"><stop stop-color="#0c1928"/><stop offset=".5" stop-color="#26364b"/><stop offset="1" stop-color="#0c1928"/></linearGradient><radialGradient id="skin-charlie-guilda"><stop stop-color="#e9ad8c"/><stop offset="1" stop-color="#c4896d"/></radialGradient></defs>
<rect width="512" height="512" rx="34" fill="url(#bg-charlie-guilda)"/><circle cx="410" cy="88" r="112" fill="#c58c42" opacity=".09"/>
<path d="M62 512 Q78 390 166 358 L214 344 H298 L346 358 Q434 390 450 512Z" fill="url(#coat-charlie-guilda)"/><path d="M169 360 L220 426 L256 383 L292 426 L343 360" fill="#c58c42" opacity=".22"/><path d="M173 360 L222 424 L256 388 L290 424 L339 360" fill="none" stroke="#d9a845" stroke-width="7"/>
<path d="M213 329 L213 373 Q256 400 299 373 L299 329Z" fill="#c4896d"/><ellipse cx="256" cy="228" rx="126" ry="145" fill="url(#skin-charlie-guilda)"/><ellipse cx="130" cy="243" rx="19" ry="32" fill="#c4896d"/><ellipse cx="382" cy="243" rx="19" ry="32" fill="#c4896d"/>
<path d="M121 183 Q103 78 191 55 Q283 22 359 74 Q409 109 392 209 L374 355 Q343 325 333 226 Q292 160 190 171 Q156 183 145 232 L130 354 Q101 287 121 183Z" fill="#30211f"/><path d="M165 208 Q194 190 225 207M287 207 Q319 190 348 208" fill="none" stroke="#30211f" stroke-width="9" stroke-linecap="round"/><ellipse cx="196" cy="237" rx="10" ry="8" fill="#172536"/><ellipse cx="316" cy="237" rx="10" ry="8" fill="#172536"/>
<path d="M256 235 Q246 275 258 286 Q270 290 278 284" fill="none" stroke="#9b624b" stroke-width="5" stroke-linecap="round"/><path d="M211 312 Q256 338 301 312 Q279 349 256 349 Q232 349 211 312Z" fill="#9c5d59" opacity=".9"/>
<path d="M102 471 Q146 405 189 383M410 471 Q366 405 323 383" fill="none" stroke="#d9a845" stroke-width="6" opacity=".85"/>
</symbol>
<symbol id="avatar-charlie-editor" viewBox="0 0 512 512">
<defs><linearGradient id="bg-charlie-editor" x2="1" y2="1"><stop stop-color="#0d1722"/><stop offset="1" stop-color="#34414e"/></linearGradient><linearGradient id="coat-charlie-editor" x2="1"><stop stop-color="#111a25"/><stop offset=".5" stop-color="#273340"/><stop offset="1" stop-color="#111a25"/></linearGradient><radialGradient id="skin-charlie-editor"><stop stop-color="#d9a68d"/><stop offset="1" stop-color="#bd8b72"/></radialGradient></defs>
<rect width="512" height="512" rx="34" fill="url(#bg-charlie-editor)"/><circle cx="410" cy="88" r="112" fill="#b99355" opacity=".09"/>
<path d="M62 512 Q78 390 166 358 L214 344 H298 L346 358 Q434 390 450 512Z" fill="url(#coat-charlie-editor)"/><path d="M169 360 L220 426 L256 383 L292 426 L343 360" fill="#b99355" opacity=".22"/><path d="M173 360 L222 424 L256 388 L290 424 L339 360" fill="none" stroke="#d9a845" stroke-width="7"/>
<path d="M213 329 L213 373 Q256 400 299 373 L299 329Z" fill="#bd8b72"/><ellipse cx="256" cy="228" rx="126" ry="145" fill="url(#skin-charlie-editor)"/><ellipse cx="130" cy="243" rx="19" ry="32" fill="#bd8b72"/><ellipse cx="382" cy="243" rx="19" ry="32" fill="#bd8b72"/>
<path d="M120 202 Q104 88 197 57 Q292 27 363 88 Q404 123 386 214 Q348 157 302 143 Q222 120 165 158 Q141 174 120 202Z" fill="#5c5a59"/><path d="M143 112 Q203 38 264 82 Q324 41 376 112 Q301 82 253 117 Q197 83 143 112Z" fill="#8a8783" opacity=".72"/><path d="M165 208 Q194 190 225 207M287 207 Q319 190 348 208" fill="none" stroke="#5c5a59" stroke-width="9" stroke-linecap="round"/><ellipse cx="196" cy="237" rx="10" ry="8" fill="#172536"/><ellipse cx="316" cy="237" rx="10" ry="8" fill="#172536"/>
<path d="M256 235 Q246 275 258 286 Q270 290 278 284" fill="none" stroke="#9b624b" stroke-width="5" stroke-linecap="round"/><path d="M211 312 Q256 338 301 312 Q279 349 256 349 Q232 349 211 312Z" fill="#9c5d59" opacity=".9"/>
<g fill="none" stroke="#1d2630" stroke-width="7"><rect x="154" y="214" width="76" height="52" rx="18"/><rect x="282" y="214" width="76" height="52" rx="18"/><path d="M230 235 Q256 222 282 235"/></g><path d="M178 304 Q203 356 256 369 Q309 356 334 304 Q316 390 256 404 Q196 389 178 304Z" fill="#5c5a59" opacity=".82"/><path d="M102 471 Q146 405 189 383M410 471 Q366 405 323 383" fill="none" stroke="#d9a845" stroke-width="6" opacity=".85"/>
</symbol>
<symbol id="avatar-android" viewBox="0 0 512 512">
<defs><linearGradient id="bg-android" x2="1" y2="1"><stop stop-color="#111b27"/><stop offset="1" stop-color="#42576d"/></linearGradient><linearGradient id="coat-android" x2="1"><stop stop-color="#18212c"/><stop offset=".5" stop-color="#334253"/><stop offset="1" stop-color="#18212c"/></linearGradient><radialGradient id="skin-android"><stop stop-color="#f0d2c1"/><stop offset="1" stop-color="#d4b39f"/></radialGradient></defs>
<rect width="512" height="512" rx="34" fill="url(#bg-android)"/><circle cx="410" cy="88" r="112" fill="#80b4c8" opacity=".09"/>
<path d="M62 512 Q78 390 166 358 L214 344 H298 L346 358 Q434 390 450 512Z" fill="url(#coat-android)"/><path d="M169 360 L220 426 L256 383 L292 426 L343 360" fill="#80b4c8" opacity=".22"/><path d="M173 360 L222 424 L256 388 L290 424 L339 360" fill="none" stroke="#d9a845" stroke-width="7"/>
<path d="M213 329 L213 373 Q256 400 299 373 L299 329Z" fill="#d4b39f"/><ellipse cx="256" cy="228" rx="126" ry="145" fill="url(#skin-android)"/><ellipse cx="130" cy="243" rx="19" ry="32" fill="#d4b39f"/><ellipse cx="382" cy="243" rx="19" ry="32" fill="#d4b39f"/>
<path d="M120 202 Q104 88 197 57 Q292 27 363 88 Q404 123 386 214 Q348 157 302 143 Q222 120 165 158 Q141 174 120 202Z" fill="#ededed"/><path d="M143 112 Q203 38 264 82 Q324 41 376 112 Q301 82 253 117 Q197 83 143 112Z" fill="#ffffff" opacity=".72"/><path d="M165 208 Q194 190 225 207M287 207 Q319 190 348 208" fill="none" stroke="#ededed" stroke-width="9" stroke-linecap="round"/><ellipse cx="196" cy="237" rx="10" ry="8" fill="#172536"/><ellipse cx="316" cy="237" rx="10" ry="8" fill="#172536"/>
<path d="M256 235 Q246 275 258 286 Q270 290 278 284" fill="none" stroke="#9b624b" stroke-width="5" stroke-linecap="round"/><path d="M211 312 Q256 338 301 312 Q279 349 256 349 Q232 349 211 312Z" fill="#9c5d59" opacity=".9"/>
<path d="M102 471 Q146 405 189 383M410 471 Q366 405 323 383" fill="none" stroke="#d9a845" stroke-width="6" opacity=".85"/>
</symbol>
<symbol id="avatar-judite" viewBox="0 0 512 512">
<defs><linearGradient id="bg-judite" x2="1" y2="1"><stop stop-color="#141b22"/><stop offset="1" stop-color="#4b535b"/></linearGradient><linearGradient id="coat-judite" x2="1"><stop stop-color="#1a2027"/><stop offset=".5" stop-color="#3c4249"/><stop offset="1" stop-color="#1a2027"/></linearGradient><radialGradient id="skin-judite"><stop stop-color="#e6b7a0"/><stop offset="1" stop-color="#c2977e"/></radialGradient></defs>
<rect width="512" height="512" rx="34" fill="url(#bg-judite)"/><circle cx="410" cy="88" r="112" fill="#b9924f" opacity=".09"/>
<path d="M62 512 Q78 390 166 358 L214 344 H298 L346 358 Q434 390 450 512Z" fill="url(#coat-judite)"/><path d="M169 360 L220 426 L256 383 L292 426 L343 360" fill="#b9924f" opacity=".22"/><path d="M173 360 L222 424 L256 388 L290 424 L339 360" fill="none" stroke="#d9a845" stroke-width="7"/>
<path d="M213 329 L213 373 Q256 400 299 373 L299 329Z" fill="#c2977e"/><ellipse cx="256" cy="228" rx="126" ry="145" fill="url(#skin-judite)"/><ellipse cx="130" cy="243" rx="19" ry="32" fill="#c2977e"/><ellipse cx="382" cy="243" rx="19" ry="32" fill="#c2977e"/>
<path d="M120 202 Q104 88 197 57 Q292 27 363 88 Q404 123 386 214 Q348 157 302 143 Q222 120 165 158 Q141 174 120 202Z" fill="#8b8b88"/><path d="M143 112 Q203 38 264 82 Q324 41 376 112 Q301 82 253 117 Q197 83 143 112Z" fill="#c9c7c2" opacity=".72"/><path d="M165 208 Q194 190 225 207M287 207 Q319 190 348 208" fill="none" stroke="#8b8b88" stroke-width="9" stroke-linecap="round"/><ellipse cx="196" cy="237" rx="10" ry="8" fill="#172536"/><ellipse cx="316" cy="237" rx="10" ry="8" fill="#172536"/>
<path d="M256 235 Q246 275 258 286 Q270 290 278 284" fill="none" stroke="#9b624b" stroke-width="5" stroke-linecap="round"/><path d="M211 312 Q256 338 301 312 Q279 349 256 349 Q232 349 211 312Z" fill="#9c5d59" opacity=".9"/>
<g fill="none" stroke="#1d2630" stroke-width="7"><rect x="154" y="214" width="76" height="52" rx="18"/><rect x="282" y="214" width="76" height="52" rx="18"/><path d="M230 235 Q256 222 282 235"/></g><path d="M102 471 Q146 405 189 383M410 471 Q366 405 323 383" fill="none" stroke="#d9a845" stroke-width="6" opacity=".85"/>
</symbol></svg>